<svg width="224" height="143" viewBox="0 0 224 143" fill="none" xmlns="http://www.w3.org/2000/svg">
<g opacity="0.2">
<path d="M188.021 2.70889C196.348 3.27764 204.712 2.67147 212.871 0.911541C214.874 0.465021 216.907 0.164424 218.954 0.0134877C220.054 -0.0463825 221.154 0.0933139 222.203 0.427597C222.817 0.655851 223.281 1.16849 223.447 1.80212C223.612 2.43576 223.457 3.1093 223.033 3.60819C222.022 4.67461 220.858 5.58266 219.577 6.30359C214.176 9.25096 209.142 12.8245 204.576 16.9493C199.046 21.6505 192.998 25.6243 187.641 30.5672C183.919 33.6355 179.955 36.3984 175.786 38.8267C165.373 45.9888 155.497 53.9015 146.235 62.5018C142.502 65.6824 138.597 69.1386 134.795 72.1458C131.616 74.704 128.298 77.1225 125.049 79.5771L125.048 79.5758C124.03 80.3828 122.969 81.1324 121.868 81.8222C119.415 83.2741 117.583 82.4446 117.03 79.5409C116.758 78.0828 116.631 76.601 116.65 75.1179C116.65 71.9722 116.65 68.7927 116.892 65.6472C116.959 64.3463 116.959 63.0429 116.892 61.7421C116.892 60.2216 115.44 59.6341 114.058 60.4636C112.676 61.2931 111.605 62.1225 110.325 62.8484C109.806 63.0592 109.217 63.0093 108.74 62.7162C108.262 62.4231 107.953 61.9204 107.905 61.3616C107.869 60.8091 107.869 60.2553 107.905 59.7028C108.216 54.1385 108.458 48.5733 108.838 43.0438H108.839C109.025 41.7516 108.74 40.437 108.035 39.3392C107.33 38.2404 106.254 37.4333 105.003 37.0642C101.547 35.5774 98.0904 33.608 94.357 32.1909C87.619 28.8832 81.1482 25.0588 75.0028 20.7507C74.4004 20.3242 73.8641 19.8128 73.4125 19.2303C72.8513 18.437 73.0358 17.3394 73.8266 16.7756C75.1488 16.1232 76.5395 15.6243 77.9751 15.2901C82.6935 14.2661 87.4732 13.5389 92.283 13.1123C103.24 12.6633 114.058 10.382 124.875 9.24197C131.478 8.22418 138.138 7.61299 144.818 7.40969C146.669 7.3598 148.515 7.19765 150.347 6.92574L164.724 5.23191C167.87 4.85149 170.946 4.26403 174.09 3.95343C179.725 3.46949 185.151 2.95062 188.02 2.70865L188.021 2.70889ZM183.701 6.47704L180.832 6.75394L155.533 9.69132C152.596 10.0368 149.657 10.6941 146.72 10.7628C137.803 10.9361 128.989 12.3531 120.141 13.4245C111.293 14.4959 102.549 16.0862 93.6311 16.4654C90.2994 16.7261 86.9879 17.1875 83.7114 17.8474C83.1539 17.9634 82.7124 18.3862 82.5714 18.9388C82.4317 19.4901 82.6201 20.0738 83.0554 20.4405C85.7558 22.3938 88.572 24.1825 91.4883 25.7975C96.7767 28.5279 102.271 30.8091 107.525 33.5395H107.526C110.152 34.9876 113.314 35.0899 116.028 33.8151C121.695 31.4652 127.399 29.2873 133.102 26.9027C148.28 20.5753 163.855 15.2416 179.727 10.9348C181.876 10.376 183.988 9.68375 186.051 8.86178C186.535 8.68841 186.777 7.8939 187.158 7.37502C186.737 7.05571 186.271 6.79877 185.776 6.61542C185.088 6.51439 184.395 6.46824 183.701 6.47697L183.701 6.47704ZM120.969 67.583V69.5874V74.0465C121.047 74.508 121.334 74.9084 121.745 75.1304C122.157 75.3536 122.648 75.3736 123.077 75.1865C123.738 74.8547 124.374 74.4731 124.978 74.0465C133.736 67.775 142.092 60.9648 150.001 53.6545C156.863 47.3817 164.162 41.6071 171.845 36.3733C179.637 31.3404 186.96 25.6142 193.723 19.2641C194.033 18.9536 194.068 18.3998 194.242 17.9507C193.735 17.9682 193.234 18.0605 192.755 18.2276C189.644 19.8516 186.43 21.3733 183.423 23.2044H183.424C166.179 34.1368 148.172 43.816 129.541 52.1678C127.675 52.9973 125.911 54.0001 124.08 54.968C123.324 55.3422 122.683 55.9109 122.221 56.6157C121.76 57.3204 121.494 58.1349 121.453 58.9768C121.418 61.6385 121.28 64.2304 120.969 67.5831L120.969 67.583ZM113.089 46.8455C113.089 48.5044 113.089 50.3017 113.434 51.8223C113.53 52.3748 113.87 52.855 114.359 53.1307C114.849 53.4051 115.435 53.445 115.958 53.2392C116.819 52.9074 117.661 52.527 118.481 52.0992C125.152 48.885 131.787 45.5671 138.457 42.4213C151.176 36.3733 163.342 29.2872 175.405 22.0641C176.949 21.0189 178.415 19.8639 179.794 18.6079C179.967 18.6079 179.794 17.9519 179.794 17.6051C179.794 17.2596 179.483 17.3282 179.345 17.3631C178.242 17.3482 177.141 17.453 176.061 17.675C169.839 19.5073 163.549 21.1312 157.501 23.3427C144.817 28.216 132.064 33.2275 119.277 38.0321C113.229 40.4519 113.229 40.4856 113.193 46.9491L113.089 46.8455Z" fill="black"/>
<path d="M0.967886 142.41C0.622395 141.719 0 140.681 0 140.093C0.56626 138.33 1.41817 136.672 2.52327 135.185C5.97945 130.726 9.78113 126.304 13.6866 122.086C24.9109 110.473 37.7643 100.553 51.8439 92.6402C56.9241 89.5993 62.2128 86.7643 67.3629 83.9652V83.964C69.5219 82.915 71.7508 82.0144 74.0335 81.2686C74.4825 81.2686 75.105 81.2686 75.6238 81.4419C75.3819 82.0643 75.3133 82.8938 74.863 83.2393C72.6515 84.8982 70.3352 86.4534 67.9506 87.974C58.4461 94.0919 48.8372 100.036 39.4361 106.327C26.2822 115.385 14.6211 126.439 4.87423 139.091C4.23437 140.005 3.54211 140.882 2.80122 141.718C2.2287 142.04 1.61129 142.273 0.96894 142.409L0.967886 142.41Z" fill="black"/>
<path d="M75.7276 64.3325C76.0956 64.2889 76.4673 64.2889 76.834 64.3325C77.1446 64.3325 77.5599 64.6431 77.6285 64.8851C77.7183 65.2393 77.6285 65.6148 77.3865 65.8879C75.9958 66.7985 74.5265 67.5842 72.9973 68.2378C61.6843 72.4575 50.6883 77.4815 40.0927 83.2728C33.9061 86.729 27.8916 90.1851 21.8085 93.9185C18.1451 96.0963 14.5506 98.4111 10.8872 100.624H10.8884C9.93674 101.185 8.91396 101.616 7.84629 101.902C7.30497 101.956 6.77361 101.735 6.42936 101.315C6.1824 100.826 6.1824 100.249 6.42936 99.7596C6.94201 98.985 7.59934 98.3165 8.36517 97.7889C16.7294 92.2932 24.989 86.5907 33.5956 81.4406C39.2981 77.9844 45.4499 75.2888 51.4644 72.3854V72.3866C58.1887 69.0914 65.277 66.5979 72.5824 64.9554C73.6888 64.6785 74.9673 64.4714 75.7269 64.333L75.7276 64.3325Z" fill="black"/>
</g>
</svg>
