<svg width="98" height="69" viewBox="0 0 98 69" fill="none" xmlns="http://www.w3.org/2000/svg">
<path opacity="0.5" d="M61.0641 68.4L74.2641 20.4L78.6641 38.4C72.9307 38.4 68.2641 36.7333 64.6641 33.4C61.0641 30.0667 59.2641 25.4667 59.2641 19.6C59.2641 13.8667 61.1307 9.2 64.8641 5.60001C68.4641 2.13334 72.9974 0.400002 78.4641 0.400002C84.0641 0.400002 88.7307 2.13334 92.4641 5.60001C96.0641 9.2 97.8641 13.8667 97.8641 19.6C97.8641 21.3333 97.7307 23 97.4641 24.6C97.1974 26.3333 96.6641 28.3333 95.8641 30.6C95.0641 32.8667 93.9307 35.8667 92.4641 39.6L80.8641 68.4H61.0641ZM2.07969 68.4L15.2797 20.4L19.6797 38.4C13.9464 38.4 9.27969 36.7333 5.67969 33.4C2.07969 30.0667 0.279685 25.4667 0.279685 19.6C0.279685 13.8667 2.14635 9.2 5.87968 5.60001C9.47969 2.13334 14.013 0.400002 19.4797 0.400002C25.0797 0.400002 29.7464 2.13334 33.4797 5.60001C37.0797 9.2 38.8797 13.8667 38.8797 19.6C38.8797 21.3333 38.7464 23 38.4797 24.6C38.213 26.3333 37.6797 28.3333 36.8797 30.6C36.0797 32.8667 34.9464 35.8667 33.4797 39.6L21.8797 68.4H2.07969Z" fill="#18181B"/>
</svg>
