<svg width="98" height="69" viewBox="0 0 98 69" fill="none" xmlns="http://www.w3.org/2000/svg">
<path opacity="0.5" d="M36.9359 0.599991L23.7359 48.6L19.3359 30.6C25.0693 30.6 29.7359 32.2667 33.3359 35.6C36.9359 38.9333 38.7359 43.5333 38.7359 49.4C38.7359 55.1333 36.8693 59.8 33.1359 63.4C29.5359 66.8667 25.0026 68.6 19.5359 68.6C13.9359 68.6 9.26927 66.8667 5.53594 63.4C1.93594 59.8 0.135938 55.1333 0.135938 49.4C0.135938 47.6667 0.269271 46 0.535938 44.4C0.802605 42.6667 1.33594 40.6667 2.13594 38.4C2.93594 36.1333 4.06927 33.1333 5.53594 29.4L17.1359 0.599991H36.9359ZM95.9203 0.599991L82.7203 48.6L78.3203 30.6C84.0536 30.6 88.7203 32.2667 92.3203 35.6C95.9203 38.9333 97.7203 43.5333 97.7203 49.4C97.7203 55.1333 95.8536 59.8 92.1203 63.4C88.5203 66.8667 83.987 68.6 78.5203 68.6C72.9203 68.6 68.2536 66.8667 64.5203 63.4C60.9203 59.8 59.1203 55.1333 59.1203 49.4C59.1203 47.6667 59.2536 46 59.5203 44.4C59.787 42.6667 60.3203 40.6667 61.1203 38.4C61.9203 36.1333 63.0536 33.1333 64.5203 29.4L76.1203 0.599991H95.9203Z" fill="#090909"/>
</svg>
